<?xml version="1.0" encoding="UTF-8"?>
<svg version="1.1" xmlns="http://www.w3.org/2000/svg" width="1689" height="355">
<path d="M0 0 C557.37 0 1114.74 0 1689 0 C1689 117.15 1689 234.3 1689 355 C1131.63 355 574.26 355 0 355 C0 237.85 0 120.7 0 0 Z " fill="#C8D9F7" transform="translate(0,0)"/>
<path d="M0 0 C20.0864085 -0.71074984 37.43380988 5.08200454 52.6640625 18.16015625 C53.99068658 19.16903995 55.32222816 20.17159245 56.6640625 21.16015625 C56.72464844 19.94457031 56.78523437 18.72898437 56.84765625 17.4765625 C56.93204582 15.89191397 57.0166946 14.30727923 57.1015625 12.72265625 C57.14087891 11.92021484 57.18019531 11.11777344 57.22070312 10.29101562 C57.55078125 4.2734375 57.55078125 4.2734375 58.6640625 3.16015625 C61.68214313 3.05901925 64.67686763 3.02046716 67.6953125 3.02734375 C68.60156372 3.02638702 69.50781494 3.0254303 70.44152832 3.02444458 C72.36157297 3.02376272 74.28161991 3.02561743 76.20166016 3.02978516 C79.15141954 3.03513333 82.10102664 3.02984037 85.05078125 3.0234375 C86.91145867 3.02409828 88.772136 3.02537944 90.6328125 3.02734375 C91.52133911 3.02531952 92.40986572 3.02329529 93.32531738 3.02120972 C99.54911262 3.04520637 99.54911262 3.04520637 100.6640625 4.16015625 C100.76975251 6.27335875 100.80375163 8.39015083 100.81123352 10.50598145 C100.81491021 11.1767945 100.8185869 11.84760755 100.822375 12.53874826 C100.83345463 14.80383454 100.83726311 17.068875 100.84106445 19.33398438 C100.84732665 20.95184984 100.85397323 22.56971387 100.86097717 24.18757629 C100.88207597 29.52217599 100.89239544 34.85677612 100.90234375 40.19140625 C100.90639129 42.03009557 100.91050821 43.86878474 100.91469383 45.70747375 C100.93377031 54.35886722 100.94798752 63.0102521 100.9563058 71.66166258 C100.96604173 81.62237281 100.99225484 91.58285864 101.03280669 101.54348993 C101.06310662 109.25326797 101.07778836 116.9629823 101.08108681 124.67281866 C101.08342458 129.27051069 101.09221504 133.86796373 101.11754799 138.46559143 C101.14107269 142.8060351 101.14496557 147.14608675 101.13478661 151.48657799 C101.13429674 153.06620791 101.14045159 154.64585871 101.15434265 156.22542763 C101.35085592 179.93004311 94.37497006 201.49878755 78.015625 218.9921875 C75.6640625 221.16015625 75.6640625 221.16015625 73.6640625 221.16015625 C73.6640625 221.82015625 73.6640625 222.48015625 73.6640625 223.16015625 C65.65727695 229.09644734 57.0320221 232.87627911 47.6640625 236.16015625 C46.849375 236.50046875 46.0346875 236.84078125 45.1953125 237.19140625 C16.93996806 248.00518005 -17.57757093 240.87388103 -44.3359375 229.16015625 C-54.58230987 224.24526999 -54.58230987 224.24526999 -56.12939453 219.96484375 C-56.41398245 216.10036853 -55.14035535 213.97579792 -53.37109375 210.546875 C-52.90285439 209.62525322 -52.90285439 209.62525322 -52.42515564 208.68501282 C-51.42924239 206.73223839 -50.41427413 204.79012822 -49.3984375 202.84765625 C-48.71811804 201.52214209 -48.03906667 200.19597627 -47.36132812 198.86914062 C-45.70082274 195.62513332 -44.02308663 192.39040256 -42.3359375 189.16015625 C-38.85267357 190.5279709 -35.48701242 192.03424417 -32.12182617 193.6730957 C-25.31585422 196.96608354 -18.74861721 199.52821746 -11.3359375 201.16015625 C-10.57667969 201.36382812 -9.81742187 201.5675 -9.03515625 201.77734375 C5.44854046 205.33132647 22.99165385 204.11112657 36.5859375 197.8046875 C45.63600141 192.14080522 51.44471885 183.51476211 54.27148438 173.29638672 C55.09480628 168.81624576 54.86582181 164.26031218 54.7890625 159.72265625 C54.78003906 158.70494141 54.77101563 157.68722656 54.76171875 156.63867188 C54.73830948 154.14558469 54.7055195 151.65299766 54.6640625 149.16015625 C54.1378833 149.6922168 53.6117041 150.22427734 53.06958008 150.77246094 C40.36049309 163.3626801 22.39509049 169.46833027 4.7890625 169.66015625 C-17.44917911 169.41851831 -35.74688846 161.23850574 -51.7265625 145.859375 C-61.50703196 135.69633616 -67.31189904 123.54242368 -71.3359375 110.16015625 C-71.70203125 109.02191406 -72.068125 107.88367188 -72.4453125 106.7109375 C-74.02086312 100.19367469 -73.73158058 93.3896073 -73.7109375 86.72265625 C-73.709729 86.00706543 -73.70852051 85.29147461 -73.70727539 84.55419922 C-73.59253558 59.57450308 -65.95321391 39.11305639 -48.4609375 20.91015625 C-34.78462341 7.73495901 -18.79286719 1.28847417 0 0 Z " fill="#020102" transform="translate(481.3359375,87.83984375)"/>
<path d="M0 0 C0.91262604 0.00202423 1.82525208 0.00404846 2.76553345 0.00613403 C4.1998748 0.00350555 4.1998748 0.00350555 5.66319275 0.00082397 C8.84665711 -0.00360122 12.03006649 -0.00065168 15.21353149 0.00271606 C17.42537954 0.00204261 19.63722752 0.00107223 21.84907532 -0.00018311 C26.50059713 -0.00166147 31.15209979 0.00049666 35.80361938 0.00515747 C41.74037634 0.01081836 47.67708773 0.00759992 53.61384296 0.00158501 C58.19088578 -0.00204816 62.76791801 -0.00086878 67.34496117 0.0017128 C69.53162835 0.00237637 71.71829651 0.00157373 73.90496254 -0.00076675 C99.66824552 -0.02226427 123.60332971 1.50328027 143.25894165 20.65213013 C157.13842994 35.31852506 163.45510338 53.56081509 162.95181274 73.62380981 C161.27348203 94.01325994 153.16698383 109.57875939 138.59243774 123.67849731 C133.99321586 127.5357114 129.0081063 130.40221386 123.66275024 133.13552856 C124.33751673 136.59660656 125.70742298 139.26522868 127.43618774 142.32693481 C128.00820923 143.34464966 128.58023071 144.3623645 129.16958618 145.41091919 C129.78608032 146.49566528 130.40257446 147.58041138 131.03775024 148.69802856 C131.66971313 149.81757935 132.30167603 150.93713013 132.95278931 152.09060669 C140.07073685 164.67533895 147.32517807 177.1778779 154.66275024 189.63552856 C155.88811888 191.71746797 157.11312482 193.79961908 158.33755493 195.8821106 C159.28022007 197.48505813 160.22366164 199.08754917 161.16763306 200.68972778 C162.71218046 203.31488025 164.25057875 205.94355174 165.78775024 208.57302856 C166.27372681 209.3967395 166.75970337 210.22045044 167.26040649 211.06912231 C167.92749634 212.21380981 167.92749634 212.21380981 168.60806274 213.38162231 C169.00525513 214.05894409 169.40244751 214.73626587 169.81167603 215.43411255 C170.66275024 217.13552856 170.66275024 217.13552856 170.66275024 219.13552856 C152.84275024 219.13552856 135.02275024 219.13552856 116.66275024 219.13552856 C114.68275024 215.50552856 112.70275024 211.87552856 110.66275024 208.13552856 C108.64925612 204.54775191 106.62996895 200.96406908 104.60025024 197.38552856 C103.7643335 195.90886719 103.7643335 195.90886719 102.91152954 194.40237427 C101.16267747 191.31300539 99.41279754 188.22422051 97.66275024 185.13552856 C95.43260259 181.19858309 93.20335276 177.26113185 90.97525024 173.32302856 C90.17208374 171.90377075 90.17208374 171.90377075 89.35269165 170.45584106 C85.4408941 163.53450824 81.56734007 156.59263335 77.73233032 149.62844849 C76.1276388 146.7228779 74.50512569 143.89909174 72.66275024 141.13552856 C61.44275024 141.13552856 50.22275024 141.13552856 38.66275024 141.13552856 C38.33275024 166.87552856 38.00275024 192.61552856 37.66275024 219.13552856 C22.81275024 219.13552856 7.96275024 219.13552856 -7.33724976 219.13552856 C-7.35979369 190.72912866 -7.37822712 162.32273595 -7.38906193 133.91632938 C-7.39422567 120.72775516 -7.40126984 107.53918687 -7.41268921 94.35061646 C-7.42263367 82.86001136 -7.42910261 71.36941056 -7.43133825 59.87880129 C-7.43264576 53.79051871 -7.43573416 47.70224844 -7.44297981 41.6139698 C-7.44973629 35.89069223 -7.45186748 30.1674321 -7.45035744 24.44415092 C-7.45063393 22.33695761 -7.45264125 20.22976374 -7.45645523 18.12257385 C-7.46138666 15.25899607 -7.46025009 12.39548527 -7.45750427 9.53190613 C-7.46041711 8.68659224 -7.46332996 7.84127835 -7.46633106 6.97034889 C-7.44786388 -0.09145134 -7.01798792 0.02397424 0 0 Z " fill="#020101" transform="translate(37.337249755859375,37.864471435546875)"/>
<path d="M0 0 C3.84320951 3.16200571 7.45169396 6.51249048 11 10 C11.85980469 10.8353125 12.71960937 11.670625 13.60546875 12.53125 C28.17768956 27.55513834 33.07490764 48.29258261 33.1328125 68.6171875 C32.94414721 73.42260352 32.4353971 78.21063187 32 83 C-6.61 83 -45.22 83 -85 83 C-81.07807952 96.07306827 -76.41718414 105.41786822 -64.41015625 112.53515625 C-50.06234126 119.93560819 -32.34699817 121.61637186 -16.74609375 117.05078125 C-10.5625213 114.6846632 -4.93188457 111.38450631 0.5 107.625 C3 106 3 106 6 106 C7.4387207 107.50952148 7.4387207 107.50952148 8.92578125 109.62109375 C9.47556641 110.39259766 10.02535156 111.16410156 10.59179688 111.95898438 C11.15962891 112.77689453 11.72746094 113.59480469 12.3125 114.4375 C12.86873047 115.22060547 13.42496094 116.00371094 13.99804688 116.81054688 C15.68370159 119.19479655 17.34386139 121.59517604 19 124 C19.57927246 124.82516113 20.15854492 125.65032227 20.75537109 126.50048828 C21.30402832 127.29567871 21.85268555 128.09086914 22.41796875 128.91015625 C22.91449951 129.62437744 23.41103027 130.33859863 23.92260742 131.07446289 C25 133 25 133 25 136 C4.62519328 153.46412005 -21.65348736 159.980896 -47.91992188 159.06933594 C-49.69069266 159.01031024 -51.46266724 158.98940096 -53.234375 158.9765625 C-71.46784257 158.32176947 -89.6114587 148.84004453 -103 137 C-103.60070312 136.49339844 -104.20140625 135.98679688 -104.8203125 135.46484375 C-116.47249461 124.86948746 -122.33445829 110.65893147 -127 96 C-127.38414062 94.91074219 -127.76828125 93.82148438 -128.1640625 92.69921875 C-133.14056796 70.67701935 -128.29986621 45.30244477 -117 26 C-114.52251207 22.1582968 -111.89168607 18.53813085 -109 15 C-108.21882812 14.01257813 -107.43765625 13.02515625 -106.6328125 12.0078125 C-80.75237006 -17.55886507 -31.93371861 -21.3199104 0 0 Z " fill="#020102" transform="translate(1122,101)"/>
<path d="M0 0 C3.84320951 3.16200571 7.45169396 6.51249048 11 10 C11.85980469 10.8353125 12.71960938 11.670625 13.60546875 12.53125 C28.17768956 27.55513834 33.07490764 48.29258261 33.1328125 68.6171875 C32.94414721 73.42260352 32.4353971 78.21063187 32 83 C-6.61 83 -45.22 83 -85 83 C-81.07807952 96.07306827 -76.41718414 105.41786822 -64.41015625 112.53515625 C-50.06234126 119.93560819 -32.34699817 121.61637186 -16.74609375 117.05078125 C-10.5625213 114.6846632 -4.93188457 111.38450631 0.5 107.625 C3 106 3 106 6 106 C7.4387207 107.50952148 7.4387207 107.50952148 8.92578125 109.62109375 C9.47556641 110.39259766 10.02535156 111.16410156 10.59179688 111.95898438 C11.15962891 112.77689453 11.72746094 113.59480469 12.3125 114.4375 C12.86873047 115.22060547 13.42496094 116.00371094 13.99804688 116.81054688 C15.68370159 119.19479655 17.34386139 121.59517604 19 124 C19.57927246 124.82516113 20.15854492 125.65032227 20.75537109 126.50048828 C21.30402832 127.29567871 21.85268555 128.09086914 22.41796875 128.91015625 C22.91449951 129.62437744 23.41103027 130.33859863 23.92260742 131.07446289 C25 133 25 133 25 136 C4.62519328 153.46412005 -21.65348736 159.980896 -47.91992188 159.06933594 C-49.69069266 159.01031024 -51.46266724 158.98940096 -53.234375 158.9765625 C-71.46784257 158.32176947 -89.6114587 148.84004453 -103 137 C-103.60070312 136.49339844 -104.20140625 135.98679688 -104.8203125 135.46484375 C-114.67649162 126.50259715 -120.76054904 114.50676307 -124.94140625 102.0703125 C-125.69408499 99.15991345 -125.69408499 99.15991345 -127 98 C-127.07179964 96.48071962 -127.08392007 94.95832518 -127.0625 93.4375 C-127.05347656 92.61121094 -127.04445313 91.78492188 -127.03515625 90.93359375 C-127.02355469 90.29550781 -127.01195312 89.65742188 -127 89 C-127.66 89 -128.32 89 -129 89 C-129.85677537 61.06912281 -127.19180049 37.25863014 -109 15 C-108.21882812 14.01257813 -107.43765625 13.02515625 -106.6328125 12.0078125 C-80.75237006 -17.55886507 -31.93371861 -21.3199104 0 0 Z " fill="#020102" transform="translate(744,101)"/>
<path d="M0 0 C1.02673828 0.50853516 1.02673828 0.50853516 2.07421875 1.02734375 C17.37112772 8.76494106 28.85392569 25.22949882 34.28564453 41.13452148 C36.27084334 47.38678244 37.58484201 53.4796067 37.859375 60.05859375 C37.78763203 62.00568999 37.78763203 62.00568999 39 63 C39.10138499 64.97700731 39.12961984 66.95790018 39.125 68.9375 C39.12757813 70.01902344 39.13015625 71.10054688 39.1328125 72.21484375 C38.97113862 76.82254926 38.45876598 81.41234021 38 86 C-0.94 86 -39.88 86 -80 86 C-74.74546767 99.66178407 -70.81317394 109.04478265 -58 116 C-43.87480557 122.26520721 -26.04003219 125.52835854 -11 120 C-2.20899284 116.15959777 -2.20899284 116.15959777 5.66796875 110.7734375 C8 109 8 109 12 109 C13.65991211 110.72485352 13.65991211 110.72485352 15.27734375 113.12890625 C16.17163086 114.43504883 16.17163086 114.43504883 17.08398438 115.76757812 C17.69564453 116.68990234 18.30730469 117.61222656 18.9375 118.5625 C20.15481702 120.35555762 21.37226265 122.14852794 22.58984375 123.94140625 C23.45585205 125.23135498 23.45585205 125.23135498 24.33935547 126.54736328 C26.50206837 129.74151409 28.74018536 132.87399454 31 136 C27.16672317 145.5200062 13.2731942 151.16914758 4.2578125 155.11132812 C-20.70853984 164.93804985 -50.37131375 165.16423528 -75.09765625 154.6875 C-94.09257031 145.66797952 -110.49503741 130.18962996 -117.68066406 110.09667969 C-120.68836346 101.21580929 -123.12341113 92.78669417 -123.1328125 83.32421875 C-123.13410156 82.08478516 -123.13539063 80.84535156 -123.13671875 79.56835938 C-123.13285156 78.28767578 -123.12898437 77.00699219 -123.125 75.6875 C-123.12886719 74.38748047 -123.13273438 73.08746094 -123.13671875 71.74804688 C-123.13542969 70.51505859 -123.13414062 69.28207031 -123.1328125 68.01171875 C-123.13168457 66.88209717 -123.13055664 65.75247559 -123.12939453 64.58862305 C-123 62 -123 62 -122 61 C-121.72305795 59.25406097 -121.47942617 57.50281592 -121.25 55.75 C-118.09057605 36.28610356 -106.63498481 18.19287457 -91.125 6.125 C-64.03332762 -12.92656315 -29.1741677 -16.47977232 0 0 Z " fill="#020102" transform="translate(349,98)"/>
<path d="M0 0 C1.03125 0.721875 2.0625 1.44375 3.125 2.1875 C13.67078438 11.35647365 19.04663292 28.45100963 20.26988792 41.98630524 C20.36472259 45.09033757 20.37189018 48.18082724 20.34057617 51.28613281 C20.34101425 52.44856003 20.34145233 53.61098724 20.34190369 54.80863953 C20.33983283 58.60697913 20.31658223 62.4048636 20.29296875 66.203125 C20.28736673 68.85399115 20.28295171 71.5048329 20.28010559 74.15570068 C20.27083181 80.39212972 20.24628232 86.62839843 20.21605712 92.8647573 C20.18236647 99.9724955 20.16599049 107.08024191 20.15097082 114.18804026 C20.11972774 128.79212084 20.06477514 143.39602849 20 158 C5.48 158 -9.04 158 -24 158 C-24.0093457 154.75567139 -24.01869141 151.51134277 -24.02832031 148.16870117 C-24.06215701 137.423829 -24.11774338 126.67914753 -24.18390274 115.93442822 C-24.22333426 109.42282828 -24.25554418 102.9113627 -24.27099609 96.3996582 C-24.28619082 90.11009015 -24.32068726 83.82089159 -24.36830902 77.53148842 C-24.38309363 75.13748711 -24.39103933 72.74343303 -24.39188385 70.34938622 C-24.39426396 66.98407425 -24.42142926 63.61977483 -24.45410156 60.25463867 C-24.4490712 59.27495621 -24.44404083 58.29527374 -24.43885803 57.28590393 C-24.56042195 49.14019729 -26.21455963 41.4282343 -31.4375 35 C-40.745577 27.73515941 -48.9918158 27.14861674 -60.5625 28.2421875 C-69.31693956 29.77421442 -76.5664154 34.5363699 -81.74609375 41.6796875 C-85.5682568 48.75247521 -86.44153132 54.60938958 -86.41650391 62.53100586 C-86.42508926 63.55469269 -86.43367462 64.57837952 -86.44252014 65.63308716 C-86.46747851 68.99374372 -86.47194885 72.35410318 -86.4765625 75.71484375 C-86.49087746 78.05514931 -86.50663536 80.39544644 -86.52377319 82.73573303 C-86.56554463 88.87881811 -86.59060077 95.02185094 -86.61126709 101.16503906 C-86.6471517 111.02262054 -86.70790744 120.88007356 -86.76975632 130.73752022 C-86.78890242 134.18601062 -86.80058924 137.63446648 -86.81118774 141.08299255 C-86.82139262 143.18024778 -86.83174992 145.27750227 -86.84228516 147.37475586 C-86.84384865 148.82325172 -86.84384865 148.82325172 -86.84544373 150.30101013 C-86.85089706 151.17430969 -86.8563504 152.04760925 -86.86196899 152.94737244 C-86.86452509 153.7103662 -86.86708118 154.47335997 -86.86971474 155.25947475 C-87 157 -87 157 -88 158 C-89.34544327 158.09785341 -90.69592563 158.12797985 -92.04492188 158.12939453 C-92.90251099 158.13254669 -93.7601001 158.13569885 -94.64367676 158.13894653 C-95.57595093 158.1369223 -96.5082251 158.13489807 -97.46875 158.1328125 C-98.89471497 158.13424759 -98.89471497 158.13424759 -100.3494873 158.13571167 C-102.36368882 158.13639357 -104.37789252 158.13453862 -106.39208984 158.13037109 C-109.48670355 158.12502298 -112.5811721 158.13031577 -115.67578125 158.13671875 C-117.62760449 158.13605797 -119.57942764 158.13477681 -121.53125 158.1328125 C-122.92966125 158.13584885 -122.92966125 158.13584885 -124.35632324 158.13894653 C-125.21391235 158.13579437 -126.07150146 158.13264221 -126.95507812 158.12939453 C-127.71373169 158.12859894 -128.47238525 158.12780334 -129.25402832 158.12698364 C-131 158 -131 158 -132 157 C-132.09908189 154.8886999 -132.12632351 152.77402403 -132.12698364 150.66040039 C-132.12932363 149.65562322 -132.12932363 149.65562322 -132.13171089 148.63054752 C-132.13572281 146.36956187 -132.13253052 144.10864249 -132.12939453 141.84765625 C-132.13074849 140.23338786 -132.13252839 138.61911978 -132.13470459 137.00485229 C-132.1392796 132.60828271 -132.13748909 128.21173649 -132.1343255 123.81516647 C-132.13180225 119.22451462 -132.13413934 114.63386482 -132.13571167 110.04321289 C-132.13753347 102.33251586 -132.13512679 94.62182839 -132.13037109 86.91113281 C-132.12492845 77.98328288 -132.1266911 69.05545577 -132.1321975 60.12760639 C-132.13672834 52.47667654 -132.13737932 44.82575357 -132.13475883 37.17482281 C-132.13319589 32.59897678 -132.13300274 28.02314149 -132.13629532 23.44729614 C-132.13917361 19.14640351 -132.13719911 14.84554045 -132.13140106 10.54465103 C-132.13007324 8.96153945 -132.13046795 7.3784254 -132.13266373 5.79531479 C-132.13537437 3.64337556 -132.13199519 1.49153262 -132.12698364 -0.66040039 C-132.12660662 -1.86757217 -132.12622959 -3.07474396 -132.12584114 -4.3184967 C-132 -7 -132 -7 -131 -8 C-127.98191937 -8.101137 -124.98719487 -8.13968909 -121.96875 -8.1328125 C-121.06249878 -8.13376923 -120.15624756 -8.13472595 -119.22253418 -8.13571167 C-117.30248953 -8.13639353 -115.38244259 -8.13453882 -113.46240234 -8.13037109 C-110.51264296 -8.12502292 -107.56303586 -8.13031588 -104.61328125 -8.13671875 C-102.75260383 -8.13605797 -100.8919265 -8.13477681 -99.03125 -8.1328125 C-98.14272339 -8.13483673 -97.25419678 -8.13686096 -96.33874512 -8.13894653 C-90.11494988 -8.11494988 -90.11494988 -8.11494988 -89 -7 C-88.84417697 -5.65984779 -88.74955858 -4.31241097 -88.68359375 -2.96484375 C-88.64169922 -2.15595703 -88.59980469 -1.34707031 -88.55664062 -0.51367188 C-88.51732422 0.33646484 -88.47800781 1.18660156 -88.4375 2.0625 C-88.39431641 2.91650391 -88.35113281 3.77050781 -88.30664062 4.65039062 C-88.20023298 6.76672037 -88.09958269 8.88333813 -88 11 C-85.93113418 11.23074173 -85.93113418 11.23074173 -84.66015625 9.71484375 C-84.13292969 9.12832031 -83.60570312 8.54179688 -83.0625 7.9375 C-78.5970676 3.35163063 -73.50682389 0.20592254 -68 -3 C-66.82824219 -3.71542969 -66.82824219 -3.71542969 -65.6328125 -4.4453125 C-46.07778921 -15.44089799 -17.7407051 -13.32265306 0 0 Z " fill="#020202" transform="translate(941,99)"/>
<path d="M0 0 C6.21834197 5.36108084 10.58503828 11.39085582 11.8984375 19.63671875 C12.70778843 30.73638868 11.92240946 39.48244739 6.8984375 49.63671875 C6.45242188 50.5803125 6.00640625 51.52390625 5.546875 52.49609375 C-2.32352988 68.06102854 -14.27394762 79.55838658 -30.1015625 86.63671875 C-30.79507812 87.01441406 -31.48859375 87.39210938 -32.203125 87.78125 C-38.67739001 90.69866571 -48.57662437 88.48175587 -55.1015625 86.63671875 C-59.63322551 84.67373377 -63.87702031 82.18507162 -68.1015625 79.63671875 C-68.1015625 78.97671875 -68.1015625 78.31671875 -68.1015625 77.63671875 C-71.56715495 80.29797599 -72.30203888 83.82740355 -73.2890625 87.88671875 C-73.46195801 88.59111084 -73.63485352 89.29550293 -73.81298828 90.02124023 C-75.97943314 99.59308455 -76.34289481 109.25754442 -73.1015625 118.63671875 C-70.07616561 121.56757198 -67.34470807 121.83708108 -63.2890625 121.94921875 C-53.01510207 121.58446276 -45.40209169 117.84037285 -37.1640625 111.82421875 C-34.1015625 109.63671875 -34.1015625 109.63671875 -32.1015625 109.63671875 C-32.1015625 108.97671875 -32.1015625 108.31671875 -32.1015625 107.63671875 C-18.15017361 99.29991319 -18.15017361 99.29991319 -11.1015625 100.63671875 C-6.92437369 102.31603304 -3.16177178 104.51630019 -1.1015625 108.63671875 C0.04066482 113.96711292 -2.34117727 117.61551779 -5.13671875 121.9765625 C-10.34349382 129.02589415 -16.20788375 134.65217585 -24.07421875 138.55078125 C-26.08543023 139.62807757 -27.59744267 140.80395781 -29.2890625 142.32421875 C-32.28662482 144.7888811 -34.4400746 145.47455531 -38.1015625 146.63671875 C-40.04539413 147.45517417 -41.9829137 148.28877122 -43.9140625 149.13671875 C-56.74237332 154.49898431 -70.06825065 155.61759746 -83.2421875 150.390625 C-85.89212059 149.19136041 -88.5072489 147.9514386 -91.1015625 146.63671875 C-91.1015625 145.97671875 -91.1015625 145.31671875 -91.1015625 144.63671875 C-91.6996875 144.38019531 -92.2978125 144.12367188 -92.9140625 143.859375 C-100.34672585 139.70504709 -103.78151107 129.84202545 -106.1953125 122.15234375 C-107.56648319 116.45548757 -107.39184203 110.71382435 -107.3515625 104.88671875 C-107.35929687 103.78328125 -107.36703125 102.67984375 -107.375 101.54296875 C-107.3468161 89.53662623 -105.23059106 78.87285569 -101.1015625 67.63671875 C-100.74191406 66.61964844 -100.38226562 65.60257812 -100.01171875 64.5546875 C-92.55789217 44.2009725 -81.68261249 25.6645706 -67.1015625 9.63671875 C-66.17923828 8.59064453 -66.17923828 8.59064453 -65.23828125 7.5234375 C-48.69022937 -10.28842741 -20.10483598 -14.83572469 0 0 Z " fill="#010101" transform="translate(1660.1015625,110.36328125)"/>
<path d="M0 0 C0.84691406 -0.01611328 1.69382812 -0.03222656 2.56640625 -0.04882812 C9.52222004 -0.05415417 15.93602842 0.87506949 21.578125 5.1875 C28.25216408 13.08027665 34.4976783 23.41078459 33.921875 34.07421875 C33.29406103 38.57355221 31.48165039 41.69902851 29 45.4375 C26.10312656 49.95498987 23.55499023 54.39447609 21.39746094 59.31103516 C18.1517018 66.60545175 18.1517018 66.60545175 15.23046875 68.6171875 C10.9386863 69.58220367 7.99494748 67.93068057 4.375 65.6875 C0.43744638 62.76827921 -2.66193497 59.73863006 -4.875 55.3125 C-5.68114015 48.47182505 -5.27606854 43.61932261 -1.06640625 38.06640625 C0.23081873 36.15672095 0.69429955 34.56501386 1.125 32.3125 C-15.2072376 35.5253992 -29.04824746 42.00995101 -39.4765625 55.36328125 C-44.21532052 62.60378582 -43.83019486 70.08898685 -42.31640625 78.3671875 C-40.21984269 86.25187151 -36.46605439 93.15592235 -32.59814453 100.27905273 C-29.07419592 106.79554009 -26.20434051 113.26344771 -23.875 120.3125 C-23.63136719 121.00988281 -23.38773438 121.70726562 -23.13671875 122.42578125 C-20.7966669 130.11452303 -20.34052302 140.06323108 -23.71875 147.4765625 C-28.88758626 155.6838363 -36.54389074 160.16985855 -45.72192383 162.85229492 C-60.00699844 165.90563041 -74.72546967 163.94906251 -87.0390625 156.36328125 C-95.38394423 150.59640889 -102.64683531 143.13734906 -105.875 133.3125 C-106.17578125 130.9609375 -106.17578125 130.9609375 -106.1875 128.6875 C-106.21263672 127.55441406 -106.21263672 127.55441406 -106.23828125 126.3984375 C-105.875 124.3125 -105.875 124.3125 -104.66796875 122.4765625 C-102.875 121.3125 -102.875 121.3125 -100.65625 121.375 C-96.27475636 122.85190797 -92.41375975 125.15787567 -88.40234375 127.4296875 C-81.15160792 131.44322612 -72.80886477 133.00344398 -64.640625 130.67578125 C-61.52372631 129.36732408 -61.52372631 129.36732408 -58.875 127.3125 C-57.65052864 116.49633629 -63.7917499 107.00054382 -69.01953125 97.91577148 C-73.67867987 89.58386021 -75.36023568 80.69410353 -76.5625 71.3125 C-76.69205078 70.39210938 -76.82160156 69.47171875 -76.95507812 68.5234375 C-78.30997689 58.34377481 -79.27922872 50.82127812 -73.1640625 42.16015625 C-64.26200093 31.0857486 -53.68965189 23.07965315 -41.875 15.3125 C-40.49828125 14.40177734 -40.49828125 14.40177734 -39.09375 13.47265625 C-34.30630117 10.46454257 -29.28943032 7.98382901 -24.1875 5.5625 C-23.5692334 5.26819092 -22.9509668 4.97388184 -22.31396484 4.6706543 C-14.753708 1.18169383 -8.22178668 -0.03100221 0 0 Z " fill="#010102" transform="translate(1518.875,95.6875)"/>
<path d="M0 0 C2.875 2.125 2.875 2.125 3.875 4.125 C4.52430147 11.42964149 3.64317884 17.39098127 0.875 24.125 C0.56949219 24.93453125 0.26398438 25.7440625 -0.05078125 26.578125 C-3.30736122 34.86760129 -7.38156761 42.74088948 -11.46679688 50.6472168 C-11.93794922 51.56929932 -12.40910156 52.49138184 -12.89453125 53.44140625 C-13.32354736 54.27099854 -13.75256348 55.10059082 -14.19458008 55.95532227 C-15.32205949 58.19106989 -15.32205949 58.19106989 -15.125 61.125 C-14.60292969 60.50753906 -14.08085938 59.89007813 -13.54296875 59.25390625 C-7.90477199 52.76652398 -1.93089546 47.35576867 4.875 42.125 C5.49890625 41.64208496 6.1228125 41.15916992 6.765625 40.66162109 C23.0826808 28.06412671 40.31268411 15.58483458 61.875 17.125 C66.65048757 18.13439606 70.6884926 19.26515324 73.875 23.125 C74.184375 24.15625 74.49375 25.1875 74.8125 26.25 C75.163125 27.19875 75.51375 28.1475 75.875 29.125 C77.90743548 30.09377057 77.90743548 30.09377057 79.875 30.125 C79.875 34.69099259 79.19218568 37.40335372 76 40.75 C71.00891356 44.78954838 65.30596711 45.77950863 59.20043945 47.23120117 C51.42433915 49.11824137 44.81767248 52.16472102 37.875 56.125 C36.96492188 56.63272949 36.05484375 57.14045898 35.1171875 57.66357422 C18.03864091 67.03886052 18.03864091 67.03886052 2.875 79.125 C2.21918945 79.7427832 1.56337891 80.36056641 0.88769531 80.99707031 C-1.40554872 83.167444 -3.67509387 85.36001563 -5.9375 87.5625 C-6.65607178 88.25448486 -7.37464355 88.94646973 -8.11499023 89.65942383 C-17.12842385 98.64971641 -20.9573222 107.48269195 -23.75 119.8125 C-28.48212153 140.31463973 -28.48212153 140.31463973 -36.9375 146.4375 C-40.24046672 147.47557526 -42.66288797 147.49262633 -46.125 147.125 C-48.73684568 145.5432189 -50.78935305 143.53066672 -52.9375 141.375 C-53.50919922 140.83617187 -54.08089844 140.29734375 -54.66992188 139.7421875 C-58.02224353 136.51198332 -60.79124718 133.78476249 -61.39501953 128.97314453 C-61.35934534 122.13368832 -60.35623239 115.69389221 -59 109 C-58.77626709 107.87198975 -58.55253418 106.74397949 -58.32202148 105.58178711 C-54.65063373 87.45249207 -50.0316868 69.65325944 -44.125 52.125 C-43.89345215 51.42922852 -43.6619043 50.73345703 -43.42333984 50.01660156 C-28.26799491 4.71077125 -28.26799491 4.71077125 -19.4375 -0.5625 C-13.16406839 -3.00216785 -5.98048337 -3.26654739 0 0 Z " fill="#010101" transform="translate(1262.125,103.875)"/>
<path d="M0 0 C12.2971486 -0.43422135 23.08137704 3.30408487 32.578125 11.02734375 C42.44552538 20.28658386 45.97731334 32.1995592 46.69140625 45.40234375 C47.02040499 60.08607712 43.85986416 73.44200521 33.48828125 84.40625 C21.81974143 94.73464069 8.72984143 96.18026861 -6.24853516 95.359375 C-16.40443797 94.41897256 -24.66869009 87.68780185 -31.171875 80.21484375 C-40.69261473 66.93474652 -42.38604016 52.1003306 -40.484375 36.15234375 C-39.56514376 31.45155959 -37.81143111 27.33242603 -35.484375 23.15234375 C-34.81535156 21.91677734 -34.81535156 21.91677734 -34.1328125 20.65625 C-28.32172423 11.03062054 -20.01738802 4.85661439 -9.484375 1.15234375 C-6.25958797 0.40373248 -3.28856682 0.2016574 0 0 Z " fill="#C7D8F6" transform="translate(492.484375,125.84765625)"/>
<path d="M0 0 C1.00549896 -0.01283524 2.01099792 -0.02567047 3.04696655 -0.03889465 C4.14473419 -0.04628159 5.24250183 -0.05366852 6.37353516 -0.0612793 C7.50022614 -0.06935104 8.62691711 -0.07742279 9.78775024 -0.08573914 C12.18367972 -0.09960775 14.57962918 -0.11031739 16.97558594 -0.11816406 C20.61253537 -0.13526269 24.24854877 -0.17911101 27.88525391 -0.22338867 C30.21467431 -0.23352531 32.54410245 -0.24203836 34.87353516 -0.2487793 C35.95106049 -0.26628738 37.02858582 -0.28379547 38.13876343 -0.30183411 C47.95559371 -0.27413957 56.82487203 2.15356525 64.56494141 8.3996582 C71.54352916 15.59978842 72.66801923 23.86079896 72.74291992 33.46142578 C72.56948193 41.58194796 69.94584034 47.98422153 64.57666016 54.13793945 C56.89037781 61.26774887 49.24984444 61.60818676 39.17041016 61.50512695 C37.9175119 61.50325378 36.66461365 61.50138062 35.37374878 61.49945068 C32.06304533 61.49103603 28.75278472 61.46910338 25.44219971 61.44128418 C22.72902148 61.42219166 20.01591169 61.41813577 17.30267525 61.41456985 C14.07105692 61.40942941 10.83949689 61.39489676 7.60791016 61.38012695 C6.3882254 61.37587708 5.16854065 61.3716272 3.91189575 61.36724854 C2.79338226 61.35764099 1.67486877 61.34803345 0.52246094 61.33813477 C-0.46680389 61.33130676 -1.45606873 61.32447876 -2.47531128 61.31744385 C-4.71240234 61.17700195 -4.71240234 61.17700195 -5.71240234 60.17700195 C-5.81145387 58.34127565 -5.84039441 56.5017262 -5.84179688 54.66333008 C-5.84494904 53.48540894 -5.8481012 52.30748779 -5.85134888 51.09387207 C-5.84932465 49.81161743 -5.84730042 48.52936279 -5.84521484 47.20825195 C-5.84617157 45.90247192 -5.8471283 44.59669189 -5.84811401 43.25134277 C-5.84959068 40.48387473 -5.84743746 37.71643891 -5.84277344 34.94897461 C-5.83707615 31.39437546 -5.84035532 27.83985181 -5.8463459 24.28525543 C-5.85081981 20.90541482 -5.84769121 17.52559472 -5.84521484 14.14575195 C-5.84723907 12.86349731 -5.84926331 11.58124268 -5.85134888 10.26013184 C-5.84819672 9.08221069 -5.84504456 7.90428955 -5.84179688 6.69067383 C-5.84100128 5.64778198 -5.84020569 4.60489014 -5.83938599 3.53039551 C-5.61366518 -0.65289836 -3.71679398 0.04118629 0 0 Z " fill="#C6D7F5" transform="translate(80.71240234375,78.822998046875)"/>
<path d="M0 0 C6.30605917 4.43394785 13.59489314 10.97555771 17 18 C17.62210057 24.21459229 16.41343035 28.29872258 13.8125 33.875 C10.88700588 40.52638698 8.73133167 47.09782681 6.91967773 54.12646484 C5.43555119 59.75224146 3.49844751 65.08706277 1.375 70.5 C-1.37281021 77.56756263 -2.95583212 84.33934447 -4.00610352 91.83691406 C-4.84609654 97.67183067 -6.5437255 102.63891392 -9 108 C-9.309375 109.03125 -9.61875 110.0625 -9.9375 111.125 C-11.88221516 116.38717045 -14.21690813 120.75958826 -18.875 124 C-22.56807311 125.1817834 -25.14270045 125.48216244 -29 125 C-34.85502588 121.90028041 -38.39192413 118.02793286 -40.75 111.875 C-43.40162518 103.04596231 -42.01657663 94.95087621 -39.77734375 86.1796875 C-39.07894217 83.32290918 -38.60595301 80.53260132 -38.1875 77.625 C-37.41350822 73.21800276 -36.03301753 69.39249077 -34.3046875 65.26953125 C-31.08065712 57.41399188 -28.34655517 49.4305023 -25.69506836 41.36645508 C-24.93874903 39.06629861 -24.17603279 36.76834405 -23.41210938 34.47070312 C-20.43910028 25.50214331 -20.43910028 25.50214331 -17.62158203 16.48388672 C-17.40127823 15.76019394 -17.18097443 15.03650116 -16.95399475 14.2908783 C-16.35572916 12.31355932 -15.76653223 10.33350293 -15.17797852 8.35327148 C-14.07361348 5.20955051 -12.96201465 2.68795076 -11 0 C-7.0030533 -1.33231557 -3.93405872 -1.39552759 0 0 Z " fill="#020202" transform="translate(1383,131)"/>
<path d="M0 0 C8.10788689 4.98559504 13.13745143 11.03383626 16.890625 19.734375 C17.515625 22.546875 17.515625 22.546875 16.515625 27.546875 C-8.234375 27.546875 -32.984375 27.546875 -58.484375 27.546875 C-57.24311636 17.61680585 -53.93518347 11.03513298 -46.171875 4.609375 C-33.17274305 -4.68846037 -14.50624735 -7.21260343 0 0 Z " fill="#C6D6F3" transform="translate(717.484375,129.453125)"/>
<path d="M0 0 C8.26412665 4.27596603 14.38380706 10.61674658 18 19.25 C19 23 19 23 18 28 C-6.75 28 -31.5 28 -57 28 C-55.75874136 18.06993085 -52.45080847 11.48825798 -44.6875 5.0625 C-32.2897919 -3.80515743 -14.07993704 -6.60231506 0 0 Z " fill="#C6D6F4" transform="translate(1094,129)"/>
<path d="M0 0 C7.77499266 5.23196557 14.22515994 11.8568583 16.1640625 21.3359375 C15.6690625 23.8109375 15.6690625 23.8109375 15.1640625 26.3359375 C-9.5859375 26.3359375 -34.3359375 26.3359375 -59.8359375 26.3359375 C-58.5374232 15.9478231 -55.05583795 9.39490453 -46.91015625 2.80078125 C-33.66315775 -6.55444368 -14.16656968 -8.31261526 0 0 Z " fill="#C5D6F3" transform="translate(329.8359375,130.6640625)"/>
<path d="M0 0 C6.65372752 2.28499895 12.93032478 6.41622867 16.26953125 12.75390625 C18.36495745 19.19706168 17.94689905 26.57726575 15.375 32.8125 C10.89135411 41.4022216 4.52125794 49.91959302 -5 53 C-10.38632711 53.62345105 -15.32139812 53.68387484 -20.375 51.625 C-24.94110461 47.05889539 -28.6419797 42.12193701 -29.390625 35.59375 C-28.92700497 31.32844576 -27.62943678 28.94746267 -25.375 25.3125 C-24.63512941 24.09289522 -23.89819387 22.87150553 -23.1640625 21.6484375 C-22.61347168 20.73723145 -22.61347168 20.73723145 -22.05175781 19.80761719 C-19.94927713 16.19416153 -18.20371282 12.39963806 -16.421875 8.62109375 C-12.21624931 0.86841562 -8.5510495 -0.99716711 0 0 Z " fill="#010101" transform="translate(1409,44)"/>
<path d="M0 0 C2.42960593 1.74433246 3.57930613 3.01838097 4.75 5.75 C5.77003066 14.93027594 3.94718097 21.49254676 -1.125 29.25 C-6.66720005 34.55123483 -12.01952097 38.33094464 -19.875 38.625 C-23.28092267 38.42380626 -24.63199344 38.26420984 -27.4375 36.25 C-27.953125 35.5075 -28.46875 34.765 -29 34 C-31.28995311 31.64065437 -33.24717096 29.83521936 -36 28 C-17.51669994 -2.71810861 -17.51669994 -2.71810861 0 0 Z " fill="#C5D6F3" transform="translate(1637,132)"/>
<path d="M0 0 C0.66 0.33 1.32 0.66 2 1 C-1.63 4.63 -5.26 8.26 -9 12 C-9 7.8407692 -6.75316432 5.85455565 -4 3 C-1.6875 1.125 -1.6875 1.125 0 0 Z " fill="#98BEEB" transform="translate(868,131)"/>
<path d="M0 0 C0.66 0.33 1.32 0.66 2 1 C-0.97 3.97 -3.94 6.94 -7 10 C-7.66 9.67 -8.32 9.34 -9 9 C-6.21000549 5.51250686 -3.74764169 2.49842779 0 0 Z " fill="#97BCE7" transform="translate(1052,132)"/>
<path d="M0 0 C0.66 0.33 1.32 0.66 2 1 C-0.97 3.97 -3.94 6.94 -7 10 C-7.66 9.67 -8.32 9.34 -9 9 C-6.21000549 5.51250686 -3.74764169 2.49842779 0 0 Z " fill="#97BBE7" transform="translate(674,132)"/>
</svg>
